<?xml version="1.0" standalone="no"?><!DOCTYPE svg PUBLIC "-//W3C//DTD SVG 1.1//EN" "http://www.w3.org/Graphics/SVG/1.1/DTD/svg11.dtd"><svg t="1620534444318" class="icon" viewBox="0 0 1024 1024" version="1.1" xmlns="http://www.w3.org/2000/svg" p-id="1201" xmlns:xlink="http://www.w3.org/1999/xlink" width="200" height="200"><defs><style type="text/css"></style></defs><path d="M585.32839 512.099902c-12.68761 0-25.475122 12.787512-25.475122 25.475122 0 12.987317 12.787512 25.475122 25.475122 25.475122 19.381073 0 31.96878-12.68761 31.968781-25.475122 0-12.587707-12.587707-25.475122-31.968781-25.475122z" p-id="1202" fill="#515151"></path><path d="M585.32839 512.099902c-12.68761 0-25.475122 12.787512-25.475122 25.475122 0 12.987317 12.787512 25.475122 25.475122 25.475122 19.381073 0 31.96878-12.68761 31.968781-25.475122 0-12.587707-12.587707-25.475122-31.968781-25.475122zM725.79122 512.099902c-12.587707 0-25.37522 12.787512-25.37522 25.475122 0 12.987317 12.68761 25.475122 25.37522 25.475122 19.081366 0 31.96878-12.68761 31.96878-25.475122 0.099902-12.587707-12.68761-25.475122-31.96878-25.475122z" p-id="1203" fill="#515151"></path><path d="M725.79122 512.099902c-12.587707 0-25.37522 12.787512-25.37522 25.475122 0 12.987317 12.68761 25.475122 25.37522 25.475122 19.081366 0 31.96878-12.68761 31.96878-25.475122 0.099902-12.587707-12.68761-25.475122-31.96878-25.475122zM323.584 326.780878c-19.081366 0-38.462439 12.587707-38.462439 31.768976 0 19.081366 19.381073 31.96878 38.462439 31.96878s31.768976-12.787512 31.768976-31.96878c0.099902-19.081366-12.68761-31.768976-31.768976-31.768976z" p-id="1204" fill="#515151"></path><path d="M323.584 326.780878c-19.081366 0-38.462439 12.587707-38.462439 31.768976 0 19.081366 19.381073 31.96878 38.462439 31.96878s31.768976-12.787512 31.768976-31.96878c0.099902-19.081366-12.68761-31.768976-31.768976-31.768976zM502.409366 390.718439c19.281171 0 31.96878-12.787512 31.96878-31.96878 0-19.281171-12.68761-31.768976-31.96878-31.768976-19.081366 0-38.362537 12.587707-38.362537 31.768976-0.099902 19.081366 19.081366 31.96878 38.362537 31.96878z" p-id="1205" fill="#515151"></path><path d="M502.409366 390.718439c19.281171 0 31.96878-12.787512 31.96878-31.96878 0-19.281171-12.68761-31.768976-31.96878-31.768976-19.081366 0-38.362537 12.587707-38.362537 31.768976-0.099902 19.081366 19.081366 31.96878 38.362537 31.96878z" p-id="1206" fill="#515151"></path><path d="M512 64.437073c-247.058732 0-447.562927 200.404293-447.562927 447.562927s200.504195 447.562927 447.562927 447.562927 447.562927-200.404293 447.562927-447.562927c0-247.058732-200.504195-447.562927-447.562927-447.562927zM406.602927 652.762537c-31.96878 0-57.443902-6.493659-89.512586-12.787513L227.777561 684.731317l25.475122-76.824976C189.415024 563.249951 151.052488 505.606244 151.052488 435.574634c0-121.581268 114.987707-217.287805 255.350634-217.287805 125.577366 0 235.569951 76.425366 257.748293 179.424781-8.092098-0.999024-16.284098-1.498537-24.576-1.498537-121.281561 0-217.088 90.611512-217.088 202.202537 0 18.481951 2.897171 36.46439 7.79239 53.547707-7.79239 0.39961-15.784585 0.79922-23.676878 0.79922z m376.632195 89.412683l19.281171 63.837658-70.03161-38.362537c-25.475122 6.393756-51.150049 12.787512-76.725073 12.787513-121.581268 0-217.287805-83.118829-217.287805-185.319025 0-102.100293 95.706537-185.319024 217.287805-185.319024 114.688 0 216.888195 83.218732 216.888195 185.319024 0.099902 57.643707-38.062829 108.593951-89.412683 147.056391z" p-id="1207" fill="#515151"></path><path d="M512 64.437073c-247.058732 0-447.562927 200.404293-447.562927 447.562927s200.504195 447.562927 447.562927 447.562927 447.562927-200.404293 447.562927-447.562927c0-247.058732-200.504195-447.562927-447.562927-447.562927zM406.602927 652.762537c-31.96878 0-57.443902-6.493659-89.512586-12.787513L227.777561 684.731317l25.475122-76.824976C189.415024 563.249951 151.052488 505.606244 151.052488 435.574634c0-121.581268 114.987707-217.287805 255.350634-217.287805 125.577366 0 235.569951 76.425366 257.748293 179.424781-8.092098-0.999024-16.284098-1.498537-24.576-1.498537-121.281561 0-217.088 90.611512-217.088 202.202537 0 18.481951 2.897171 36.46439 7.79239 53.547707-7.79239 0.39961-15.784585 0.79922-23.676878 0.79922z m376.632195 89.412683l19.281171 63.837658-70.03161-38.362537c-25.475122 6.393756-51.150049 12.787512-76.725073 12.787513-121.581268 0-217.287805-83.118829-217.287805-185.319025 0-102.100293 95.706537-185.319024 217.287805-185.319024 114.688 0 216.888195 83.218732 216.888195 185.319024 0.099902 57.643707-38.062829 108.593951-89.412683 147.056391z" p-id="1208" fill="#515151"></path></svg>